<svg xmlns="http://www.w3.org/2000/svg" xmlns:xlink="http://www.w3.org/1999/xlink" width="5104" zoomAndPan="magnify" viewBox="0 0 3828 3672.749969" height="4897" preserveAspectRatio="xMidYMid meet" version="1.0"><defs><g/><clipPath id="cfdfd29172"><path d="M 0.128906 0 L 3827.867188 0 L 3827.867188 3672.5 L 0.128906 3672.5 Z M 0.128906 0 " clip-rule="nonzero"/></clipPath><clipPath id="65e24cf4f7"><path d="M 108 30 L 3723.597656 30 L 3723.597656 3645.847656 L 108 3645.847656 Z M 108 30 " clip-rule="nonzero"/></clipPath><clipPath id="47f8b87d9b"><path d="M 166 0 L 3642 0 L 3642 3672.5 L 166 3672.5 Z M 166 0 " clip-rule="nonzero"/></clipPath><clipPath id="2ae9d75221"><rect x="0" width="3476" y="0" height="3673"/></clipPath></defs><g clip-path="url(#cfdfd29172)"><path fill="#ffffff" d="M 0.128906 0 L 3827.871094 0 L 3827.871094 3672.5 L 0.128906 3672.5 Z M 0.128906 0 " fill-opacity="1" fill-rule="nonzero"/><path fill="#ffffff" d="M 0.128906 0 L 3827.871094 0 L 3827.871094 3672.5 L 0.128906 3672.5 Z M 0.128906 0 " fill-opacity="1" fill-rule="nonzero"/></g><g clip-path="url(#65e24cf4f7)"><path fill="#13aa99" d="M 3428.894531 3651.921875 L 409.125 3651.921875 C 242.699219 3651.921875 108.351562 3517.574219 108.351562 3351.144531 L 108.351562 331.375 C 108.351562 164.949219 242.699219 30.601562 409.125 30.601562 L 3428.894531 30.601562 C 3595.324219 30.601562 3729.671875 164.949219 3729.671875 331.375 L 3729.671875 3351.144531 C 3729.671875 3517.574219 3595.324219 3651.921875 3428.894531 3651.921875 Z M 3428.894531 3651.921875 " fill-opacity="1" fill-rule="nonzero"/></g><g clip-path="url(#47f8b87d9b)"><g transform="matrix(1, 0, 0, 1, 166, -0.00000000000035283)"><g clip-path="url(#2ae9d75221)"><g fill="#ffffff" fill-opacity="1"><g transform="translate(4.041757, 2897.84548)"><g><path d="M 644.8125 -1968.078125 L 644.8125 -325.765625 L 1529.234375 -325.765625 L 1529.234375 0 L 255.765625 0 L 255.765625 -1968.078125 Z M 644.8125 -1968.078125 "/></g></g></g><g fill="#ffffff" fill-opacity="1"><g transform="translate(1545.386436, 2897.84548)"><g><path d="M 1075.578125 28.265625 C 894.296875 28.265625 734.550781 -9.425781 596.34375 -84.8125 C 458.132812 -160.195312 349.992188 -273.492188 271.921875 -424.703125 C 193.847656 -575.921875 154.8125 -762.363281 154.8125 -984.03125 C 154.8125 -1205.695312 193.847656 -1392.140625 271.921875 -1543.359375 C 349.992188 -1694.578125 458.132812 -1807.878906 596.34375 -1883.265625 C 734.550781 -1958.648438 894.296875 -1996.34375 1075.578125 -1996.34375 C 1264.929688 -1996.34375 1425.796875 -1959.320312 1558.171875 -1885.28125 C 1690.546875 -1811.25 1785 -1698.398438 1841.53125 -1546.734375 L 1557.5 -1373.078125 L 1523.84375 -1374.421875 C 1481.664062 -1476.734375 1424.453125 -1550.097656 1352.203125 -1594.515625 C 1279.960938 -1638.941406 1187.753906 -1661.15625 1075.578125 -1661.15625 C 912.242188 -1661.15625 784.804688 -1607.082031 693.265625 -1498.9375 C 601.734375 -1390.800781 555.96875 -1219.164062 555.96875 -984.03125 C 555.96875 -749.800781 601.734375 -578.613281 693.265625 -470.46875 C 784.804688 -362.332031 912.242188 -308.265625 1075.578125 -308.265625 C 1331.347656 -308.265625 1487.953125 -432.5625 1545.390625 -681.15625 L 1579.03125 -681.15625 L 1865.765625 -531.734375 C 1811.921875 -345.066406 1719.929688 -205.066406 1589.796875 -111.734375 C 1459.671875 -18.398438 1288.265625 28.265625 1075.578125 28.265625 Z M 1075.578125 28.265625 "/></g></g></g></g></g></g></svg>